<svg xmlns="http://www.w3.org/2000/svg" width="19" height="17" viewBox="0 0 19 17"><path fill="none" stroke="#FFF" stroke-linecap="round" stroke-linejoin="round" stroke-width="1.56" d="M7.05555556.5C7.05555556-.358666667 6.35866667-1.05555556 5.5-1.05555556 4.64133333-1.05555556 3.94444444-.358666667 3.94444444.5 3.94444444 1.35866667 4.64133333 2.05555556 5.5 2.05555556 6.35866667 2.05555556 7.05555556 1.35866667 7.05555556.5ZM7.44444444.444444445 15.9444444.5M7.05555556 14.5C7.05555556 13.6413333 6.35866667 12.9444444 5.5 12.9444444 4.64133333 12.9444444 3.94444444 13.6413333 3.94444444 14.5 3.94444444 15.3586667 4.64133333 16.0555556 5.5 16.0555556 6.35866667 16.0555556 7.05555556 15.3586667 7.05555556 14.5ZM7.44444444 14.4444444 15.9444444 14.5M1.44444444.444444445 3.94444444.5M1.44444444 14.4444444 3.94444444 14.5M13.0555556 7.5C13.0555556 6.64133333 12.3586667 5.94444444 11.5 5.94444444 10.6413333 5.94444444 9.94444444 6.64133333 9.94444444 7.5 9.94444444 8.35866667 10.6413333 9.05555556 11.5 9.05555556 12.3586667 9.05555556 13.0555556 8.35866667 13.0555556 7.5ZM13.4444444 7.44444444 15.9444444 7.5M1.44444444 7.44444444 9.44444444 7.44444444" transform="rotate(90 8.445 8.5)"/></svg>