<svg xmlns="http://www.w3.org/2000/svg" width="18" height="16" viewBox="0 0 18 16"><path fill="#868686" fill-rule="evenodd" d="M171.97557,7.13564638 C171.565098,3.98938378 168.945804,1.56309415 165.775337,1.56309415 C162.322341,1.56309415 159.519198,4.44723254 159.519198,8 C159.519198,11.5527675 162.322341,14.4372919 165.775337,14.4372919 C167.434861,14.4372919 169.026097,13.7590117 170.199358,12.5518506 L171.27319,13.657096 C169.81515,15.1572649 167.837454,16 165.775337,16 C161.484137,16 158,12.4155769 158,8 C158,3.58480915 161.484137,0 165.775337,0 C169.761121,0 173.0464,3.08603967 173.49777,7.06229793 L174.830116,5.69145394 L176,6.89475462 L172.701213,10.2888578 L169.400926,6.89321044 L170.570809,5.68990976 L171.97557,7.13564638 L171.97557,7.13564638 Z" transform="translate(-158)"/></svg>